<mxfile host="app.diagrams.net" modified="2022-12-01T06:35:53.937Z" agent="5.0 (Macintosh; Intel Mac OS X 10_15_7) AppleWebKit/537.36 (KHTML, like Gecko) Chrome/107.0.0.0 Safari/537.36" etag="ss1aarFXp8wxk-mPoeNe" version="20.5.3" type="github">
  <diagram id="VOZFbRbZxgG-yaqh_hgr" name="第 1 页">
    <mxGraphModel dx="1180" dy="750" grid="1" gridSize="10" guides="1" tooltips="1" connect="1" arrows="1" fold="1" page="1" pageScale="1" pageWidth="827" pageHeight="1169" math="0" shadow="0">
      <root>
        <mxCell id="0" />
        <mxCell id="1" parent="0" />
        <mxCell id="JPP5QY3MRgLspXzyIwWN-60" value="proof[0]" style="rounded=0;whiteSpace=wrap;html=1;" vertex="1" parent="1">
          <mxGeometry x="590" y="360" width="120" height="60" as="geometry" />
        </mxCell>
        <mxCell id="JPP5QY3MRgLspXzyIwWN-61" value="proof[1]" style="rounded=0;whiteSpace=wrap;html=1;" vertex="1" parent="1">
          <mxGeometry x="590" y="420" width="120" height="60" as="geometry" />
        </mxCell>
        <mxCell id="JPP5QY3MRgLspXzyIwWN-62" value="proof[2]" style="rounded=0;whiteSpace=wrap;html=1;" vertex="1" parent="1">
          <mxGeometry x="590" y="480" width="120" height="60" as="geometry" />
        </mxCell>
        <mxCell id="JPP5QY3MRgLspXzyIwWN-6" value="" style="rounded=0;whiteSpace=wrap;html=1;" vertex="1" parent="1">
          <mxGeometry x="115" y="120" width="515" height="70" as="geometry" />
        </mxCell>
        <mxCell id="JPP5QY3MRgLspXzyIwWN-1" value="tree1&amp;nbsp;" style="rounded=1;whiteSpace=wrap;html=1;" vertex="1" parent="1">
          <mxGeometry x="140" y="140" width="70" height="30" as="geometry" />
        </mxCell>
        <mxCell id="JPP5QY3MRgLspXzyIwWN-2" value="tree 2" style="rounded=1;whiteSpace=wrap;html=1;" vertex="1" parent="1">
          <mxGeometry x="240" y="140" width="70" height="30" as="geometry" />
        </mxCell>
        <mxCell id="JPP5QY3MRgLspXzyIwWN-3" value="tree 2" style="rounded=1;whiteSpace=wrap;html=1;" vertex="1" parent="1">
          <mxGeometry x="340" y="140" width="70" height="30" as="geometry" />
        </mxCell>
        <mxCell id="JPP5QY3MRgLspXzyIwWN-4" value="tree 4" style="rounded=1;whiteSpace=wrap;html=1;" vertex="1" parent="1">
          <mxGeometry x="440" y="140" width="70" height="30" as="geometry" />
        </mxCell>
        <mxCell id="JPP5QY3MRgLspXzyIwWN-5" value="const tree" style="rounded=1;whiteSpace=wrap;html=1;" vertex="1" parent="1">
          <mxGeometry x="540" y="140" width="70" height="30" as="geometry" />
        </mxCell>
        <mxCell id="JPP5QY3MRgLspXzyIwWN-7" value="FRI 表达式" style="rhombus;whiteSpace=wrap;html=1;" vertex="1" parent="1">
          <mxGeometry x="335" y="190" width="80" height="80" as="geometry" />
        </mxCell>
        <mxCell id="JPP5QY3MRgLspXzyIwWN-10" value="0" style="rounded=0;whiteSpace=wrap;html=1;" vertex="1" parent="1">
          <mxGeometry x="60" y="270" width="55" height="30" as="geometry" />
        </mxCell>
        <mxCell id="JPP5QY3MRgLspXzyIwWN-11" value="1" style="rounded=0;whiteSpace=wrap;html=1;" vertex="1" parent="1">
          <mxGeometry x="115" y="270" width="55" height="30" as="geometry" />
        </mxCell>
        <mxCell id="JPP5QY3MRgLspXzyIwWN-12" value="...." style="rounded=0;whiteSpace=wrap;html=1;" vertex="1" parent="1">
          <mxGeometry x="170" y="270" width="55" height="30" as="geometry" />
        </mxCell>
        <mxCell id="JPP5QY3MRgLspXzyIwWN-13" value="8" style="rounded=0;whiteSpace=wrap;html=1;" vertex="1" parent="1">
          <mxGeometry x="225" y="270" width="55" height="30" as="geometry" />
        </mxCell>
        <mxCell id="JPP5QY3MRgLspXzyIwWN-14" value="9" style="rounded=0;whiteSpace=wrap;html=1;" vertex="1" parent="1">
          <mxGeometry x="280" y="270" width="55" height="30" as="geometry" />
        </mxCell>
        <mxCell id="JPP5QY3MRgLspXzyIwWN-15" value="....." style="rounded=0;whiteSpace=wrap;html=1;" vertex="1" parent="1">
          <mxGeometry x="335" y="270" width="55" height="30" as="geometry" />
        </mxCell>
        <mxCell id="JPP5QY3MRgLspXzyIwWN-16" value="16" style="rounded=0;whiteSpace=wrap;html=1;" vertex="1" parent="1">
          <mxGeometry x="390" y="270" width="55" height="30" as="geometry" />
        </mxCell>
        <mxCell id="JPP5QY3MRgLspXzyIwWN-17" value="17" style="rounded=0;whiteSpace=wrap;html=1;" vertex="1" parent="1">
          <mxGeometry x="445" y="270" width="55" height="30" as="geometry" />
        </mxCell>
        <mxCell id="JPP5QY3MRgLspXzyIwWN-18" value="...." style="rounded=0;whiteSpace=wrap;html=1;" vertex="1" parent="1">
          <mxGeometry x="500" y="270" width="55" height="30" as="geometry" />
        </mxCell>
        <mxCell id="JPP5QY3MRgLspXzyIwWN-19" value="....." style="rounded=0;whiteSpace=wrap;html=1;" vertex="1" parent="1">
          <mxGeometry x="555" y="270" width="55" height="30" as="geometry" />
        </mxCell>
        <mxCell id="JPP5QY3MRgLspXzyIwWN-20" value="2046" style="rounded=0;whiteSpace=wrap;html=1;" vertex="1" parent="1">
          <mxGeometry x="610" y="270" width="55" height="30" as="geometry" />
        </mxCell>
        <mxCell id="JPP5QY3MRgLspXzyIwWN-21" value="2047" style="rounded=0;whiteSpace=wrap;html=1;" vertex="1" parent="1">
          <mxGeometry x="665" y="270" width="55" height="30" as="geometry" />
        </mxCell>
        <mxCell id="JPP5QY3MRgLspXzyIwWN-22" value="FRI在扩域上&lt;br&gt;的值" style="text;html=1;align=center;verticalAlign=middle;resizable=0;points=[];autosize=1;strokeColor=none;fillColor=none;" vertex="1" parent="1">
          <mxGeometry x="65" y="230" width="90" height="40" as="geometry" />
        </mxCell>
        <mxCell id="JPP5QY3MRgLspXzyIwWN-23" value="0" style="rounded=0;whiteSpace=wrap;html=1;" vertex="1" parent="1">
          <mxGeometry x="225" y="381" width="55" height="30" as="geometry" />
        </mxCell>
        <mxCell id="JPP5QY3MRgLspXzyIwWN-24" value="8" style="rounded=0;whiteSpace=wrap;html=1;" vertex="1" parent="1">
          <mxGeometry x="225" y="411" width="55" height="30" as="geometry" />
        </mxCell>
        <mxCell id="JPP5QY3MRgLspXzyIwWN-25" value="16" style="rounded=0;whiteSpace=wrap;html=1;" vertex="1" parent="1">
          <mxGeometry x="225" y="441" width="55" height="30" as="geometry" />
        </mxCell>
        <mxCell id="JPP5QY3MRgLspXzyIwWN-26" value="...." style="rounded=0;whiteSpace=wrap;html=1;" vertex="1" parent="1">
          <mxGeometry x="225" y="471" width="55" height="30" as="geometry" />
        </mxCell>
        <mxCell id="JPP5QY3MRgLspXzyIwWN-27" value="2040" style="rounded=0;whiteSpace=wrap;html=1;" vertex="1" parent="1">
          <mxGeometry x="225" y="501" width="55" height="30" as="geometry" />
        </mxCell>
        <mxCell id="JPP5QY3MRgLspXzyIwWN-28" value="1" style="rounded=0;whiteSpace=wrap;html=1;" vertex="1" parent="1">
          <mxGeometry x="280" y="381" width="55" height="30" as="geometry" />
        </mxCell>
        <mxCell id="JPP5QY3MRgLspXzyIwWN-29" value="9" style="rounded=0;whiteSpace=wrap;html=1;" vertex="1" parent="1">
          <mxGeometry x="280" y="411" width="55" height="30" as="geometry" />
        </mxCell>
        <mxCell id="JPP5QY3MRgLspXzyIwWN-30" value="17" style="rounded=0;whiteSpace=wrap;html=1;" vertex="1" parent="1">
          <mxGeometry x="280" y="441" width="55" height="30" as="geometry" />
        </mxCell>
        <mxCell id="JPP5QY3MRgLspXzyIwWN-31" value="...." style="rounded=0;whiteSpace=wrap;html=1;" vertex="1" parent="1">
          <mxGeometry x="280" y="471" width="55" height="30" as="geometry" />
        </mxCell>
        <mxCell id="JPP5QY3MRgLspXzyIwWN-32" value="2041" style="rounded=0;whiteSpace=wrap;html=1;" vertex="1" parent="1">
          <mxGeometry x="280" y="501" width="55" height="30" as="geometry" />
        </mxCell>
        <mxCell id="JPP5QY3MRgLspXzyIwWN-33" value="2" style="rounded=0;whiteSpace=wrap;html=1;" vertex="1" parent="1">
          <mxGeometry x="335" y="381" width="55" height="30" as="geometry" />
        </mxCell>
        <mxCell id="JPP5QY3MRgLspXzyIwWN-34" value="10" style="rounded=0;whiteSpace=wrap;html=1;" vertex="1" parent="1">
          <mxGeometry x="335" y="411" width="55" height="30" as="geometry" />
        </mxCell>
        <mxCell id="JPP5QY3MRgLspXzyIwWN-35" value="18" style="rounded=0;whiteSpace=wrap;html=1;" vertex="1" parent="1">
          <mxGeometry x="335" y="441" width="55" height="30" as="geometry" />
        </mxCell>
        <mxCell id="JPP5QY3MRgLspXzyIwWN-36" value="...." style="rounded=0;whiteSpace=wrap;html=1;" vertex="1" parent="1">
          <mxGeometry x="335" y="471" width="55" height="30" as="geometry" />
        </mxCell>
        <mxCell id="JPP5QY3MRgLspXzyIwWN-37" value="2042" style="rounded=0;whiteSpace=wrap;html=1;" vertex="1" parent="1">
          <mxGeometry x="335" y="501" width="55" height="30" as="geometry" />
        </mxCell>
        <mxCell id="JPP5QY3MRgLspXzyIwWN-38" value="..." style="rounded=0;whiteSpace=wrap;html=1;" vertex="1" parent="1">
          <mxGeometry x="390" y="381" width="55" height="30" as="geometry" />
        </mxCell>
        <mxCell id="JPP5QY3MRgLspXzyIwWN-39" value="..." style="rounded=0;whiteSpace=wrap;html=1;" vertex="1" parent="1">
          <mxGeometry x="390" y="411" width="55" height="30" as="geometry" />
        </mxCell>
        <mxCell id="JPP5QY3MRgLspXzyIwWN-40" value="..." style="rounded=0;whiteSpace=wrap;html=1;" vertex="1" parent="1">
          <mxGeometry x="390" y="441" width="55" height="30" as="geometry" />
        </mxCell>
        <mxCell id="JPP5QY3MRgLspXzyIwWN-41" value="..." style="rounded=0;whiteSpace=wrap;html=1;" vertex="1" parent="1">
          <mxGeometry x="390" y="471" width="55" height="30" as="geometry" />
        </mxCell>
        <mxCell id="JPP5QY3MRgLspXzyIwWN-42" value="..." style="rounded=0;whiteSpace=wrap;html=1;" vertex="1" parent="1">
          <mxGeometry x="390" y="501" width="55" height="30" as="geometry" />
        </mxCell>
        <mxCell id="JPP5QY3MRgLspXzyIwWN-43" value="7" style="rounded=0;whiteSpace=wrap;html=1;" vertex="1" parent="1">
          <mxGeometry x="445" y="381" width="55" height="30" as="geometry" />
        </mxCell>
        <mxCell id="JPP5QY3MRgLspXzyIwWN-44" value="15" style="rounded=0;whiteSpace=wrap;html=1;" vertex="1" parent="1">
          <mxGeometry x="445" y="411" width="55" height="30" as="geometry" />
        </mxCell>
        <mxCell id="JPP5QY3MRgLspXzyIwWN-45" value="23" style="rounded=0;whiteSpace=wrap;html=1;" vertex="1" parent="1">
          <mxGeometry x="445" y="441" width="55" height="30" as="geometry" />
        </mxCell>
        <mxCell id="JPP5QY3MRgLspXzyIwWN-46" value="...." style="rounded=0;whiteSpace=wrap;html=1;" vertex="1" parent="1">
          <mxGeometry x="445" y="471" width="55" height="30" as="geometry" />
        </mxCell>
        <mxCell id="JPP5QY3MRgLspXzyIwWN-47" value="2047" style="rounded=0;whiteSpace=wrap;html=1;" vertex="1" parent="1">
          <mxGeometry x="445" y="501" width="55" height="30" as="geometry" />
        </mxCell>
        <mxCell id="JPP5QY3MRgLspXzyIwWN-48" value="分组" style="rhombus;whiteSpace=wrap;html=1;" vertex="1" parent="1">
          <mxGeometry x="330" y="300" width="80" height="80" as="geometry" />
        </mxCell>
        <mxCell id="JPP5QY3MRgLspXzyIwWN-49" value="对列&lt;br&gt;FFT 变换" style="rhombus;whiteSpace=wrap;html=1;" vertex="1" parent="1">
          <mxGeometry x="322.5" y="531" width="80" height="80" as="geometry" />
        </mxCell>
        <mxCell id="JPP5QY3MRgLspXzyIwWN-50" value="0" style="rounded=0;whiteSpace=wrap;html=1;" vertex="1" parent="1">
          <mxGeometry x="222" y="612" width="55" height="30" as="geometry" />
        </mxCell>
        <mxCell id="JPP5QY3MRgLspXzyIwWN-51" value="1" style="rounded=0;whiteSpace=wrap;html=1;" vertex="1" parent="1">
          <mxGeometry x="277" y="612" width="55" height="30" as="geometry" />
        </mxCell>
        <mxCell id="JPP5QY3MRgLspXzyIwWN-52" value="2" style="rounded=0;whiteSpace=wrap;html=1;" vertex="1" parent="1">
          <mxGeometry x="332" y="612" width="55" height="30" as="geometry" />
        </mxCell>
        <mxCell id="JPP5QY3MRgLspXzyIwWN-53" value="..." style="rounded=0;whiteSpace=wrap;html=1;" vertex="1" parent="1">
          <mxGeometry x="387" y="612" width="55" height="30" as="geometry" />
        </mxCell>
        <mxCell id="JPP5QY3MRgLspXzyIwWN-54" value="7" style="rounded=0;whiteSpace=wrap;html=1;" vertex="1" parent="1">
          <mxGeometry x="442" y="612" width="55" height="30" as="geometry" />
        </mxCell>
        <mxCell id="JPP5QY3MRgLspXzyIwWN-55" value="FRI tree[0]" style="text;html=1;align=center;verticalAlign=middle;resizable=0;points=[];autosize=1;strokeColor=none;fillColor=none;" vertex="1" parent="1">
          <mxGeometry x="120" y="441" width="80" height="30" as="geometry" />
        </mxCell>
        <mxCell id="JPP5QY3MRgLspXzyIwWN-56" value="FRI&amp;nbsp; 低度测试&amp;nbsp;" style="text;html=1;align=center;verticalAlign=middle;resizable=0;points=[];autosize=1;strokeColor=none;fillColor=none;" vertex="1" parent="1">
          <mxGeometry x="105" y="611" width="100" height="30" as="geometry" />
        </mxCell>
        <mxCell id="JPP5QY3MRgLspXzyIwWN-63" value="" style="shape=flexArrow;endArrow=classic;html=1;rounded=0;exitX=0.5;exitY=1;exitDx=0;exitDy=0;" edge="1" parent="1" source="JPP5QY3MRgLspXzyIwWN-18">
          <mxGeometry width="50" height="50" relative="1" as="geometry">
            <mxPoint x="555" y="340" as="sourcePoint" />
            <mxPoint x="625" y="380" as="targetPoint" />
          </mxGeometry>
        </mxCell>
        <mxCell id="JPP5QY3MRgLspXzyIwWN-64" value="抽样" style="text;html=1;align=center;verticalAlign=middle;resizable=0;points=[];autosize=1;strokeColor=none;fillColor=none;" vertex="1" parent="1">
          <mxGeometry x="567" y="313" width="50" height="30" as="geometry" />
        </mxCell>
        <mxCell id="JPP5QY3MRgLspXzyIwWN-66" value="" style="shape=flexArrow;endArrow=classic;html=1;rounded=0;exitX=1;exitY=0.5;exitDx=0;exitDy=0;" edge="1" parent="1" source="JPP5QY3MRgLspXzyIwWN-45">
          <mxGeometry width="50" height="50" relative="1" as="geometry">
            <mxPoint x="550" y="440" as="sourcePoint" />
            <mxPoint x="620" y="460" as="targetPoint" />
          </mxGeometry>
        </mxCell>
        <mxCell id="JPP5QY3MRgLspXzyIwWN-67" value="" style="shape=flexArrow;endArrow=classic;html=1;rounded=0;exitX=1;exitY=0.25;exitDx=0;exitDy=0;" edge="1" parent="1" source="JPP5QY3MRgLspXzyIwWN-54">
          <mxGeometry width="50" height="50" relative="1" as="geometry">
            <mxPoint x="560" y="680" as="sourcePoint" />
            <mxPoint x="620" y="520" as="targetPoint" />
          </mxGeometry>
        </mxCell>
        <mxCell id="JPP5QY3MRgLspXzyIwWN-68" value="抽样" style="text;html=1;align=center;verticalAlign=middle;resizable=0;points=[];autosize=1;strokeColor=none;fillColor=none;" vertex="1" parent="1">
          <mxGeometry x="520" y="424" width="50" height="30" as="geometry" />
        </mxCell>
        <mxCell id="JPP5QY3MRgLspXzyIwWN-69" value="FRI proof&amp;nbsp;" style="text;html=1;align=center;verticalAlign=middle;resizable=0;points=[];autosize=1;strokeColor=none;fillColor=none;" vertex="1" parent="1">
          <mxGeometry x="615" y="550" width="80" height="30" as="geometry" />
        </mxCell>
        <mxCell id="JPP5QY3MRgLspXzyIwWN-70" value="全部" style="text;html=1;align=center;verticalAlign=middle;resizable=0;points=[];autosize=1;strokeColor=none;fillColor=none;" vertex="1" parent="1">
          <mxGeometry x="502.5" y="550" width="50" height="30" as="geometry" />
        </mxCell>
      </root>
    </mxGraphModel>
  </diagram>
</mxfile>
